<svg xmlns="http://www.w3.org/2000/svg" viewBox="0 0 32 22" width="32" height="22">
  <rect width="32" height="22" fill="#FFFFFF"/>
  <g fill="#B22234">
    <rect y="0" width="32" height="1.7"/><rect y="3.4" width="32" height="1.7"/><rect y="6.8" width="32" height="1.7"/>
    <rect y="10.2" width="32" height="1.7"/><rect y="13.6" width="32" height="1.7"/><rect y="17" width="32" height="1.7"/>
    <rect y="20.3" width="32" height="1.7"/>
  </g>
  <rect width="13" height="11.9" fill="#3C3B6E"/>
  <g fill="#FFFFFF">
    <circle cx="2.2" cy="2" r="0.6"/><circle cx="5.2" cy="2" r="0.6"/><circle cx="8.2" cy="2" r="0.6"/><circle cx="11" cy="2" r="0.6"/>
    <circle cx="3.7" cy="4.6" r="0.6"/><circle cx="6.7" cy="4.6" r="0.6"/><circle cx="9.6" cy="4.6" r="0.6"/>
    <circle cx="2.2" cy="7.2" r="0.6"/><circle cx="5.2" cy="7.2" r="0.6"/><circle cx="8.2" cy="7.2" r="0.6"/><circle cx="11" cy="7.2" r="0.6"/>
    <circle cx="3.7" cy="9.8" r="0.6"/><circle cx="6.7" cy="9.8" r="0.6"/><circle cx="9.6" cy="9.8" r="0.6"/>
  </g>
</svg>
